<svg xmlns="http://www.w3.org/2000/svg" xmlns:xlink="http://www.w3.org/1999/xlink" xmlns:lucid="lucid" width="1220" height="740"><g transform="translate(-400 -100)" lucid:page-tab-id="0_0"><path d="M0 0h1760v1360H0z" fill="#fff"/><path d="M1060 459V304.88" stroke="#333" fill="none"/><path d="M1060.5 459.5h-1v-.5h1z" fill="#333"/><path d="M1060 290.12l4.64 14.26h-9.28z" stroke="#333" fill="#333"/><path d="M899 208H716.88" stroke="#333" fill="none"/><path d="M899.5 208.5h-.5v-1h.5z" fill="#333"/><path d="M702.12 208l14.26-4.64v9.28z" stroke="#333" fill="#333"/><path d="M920 500h280v33H920z" fill="#fff"/><path d="M920 532h280v33H920z" fill="#e6e6e6"/><path d="M920 564h280v33H920z" fill="#fff"/><path d="M920 596h280v33H920z" fill="#e6e6e6"/><path d="M920 628h280v33H920z" fill="#fff"/><path d="M920 660h280v33H920z" fill="#e6e6e6"/><path d="M920 692h280v33H920z" fill="#fff"/><path d="M920 724h280v33H920z" fill="#e6e6e6"/><path d="M920 756h280v33H920z" fill="#fff"/><path d="M920 788h280v32H920z" fill="#e6e6e6"/><path d="M920 460h280v40H920z" fill="#c1e4f7"/><path d="M920 465c0-2.76 2.24-5 5-5h270c2.76 0 5 2.24 5 5v350c0 2.76-2.24 5-5 5H925c-2.76 0-5-2.24-5-5zM920 500h280M1060 500v320" stroke="#333" fill="none"/><use xlink:href="#a" transform="matrix(1,0,0,1,930,460) translate(105.05 23.6)"/><use xlink:href="#b" transform="matrix(1,0,0,1,925,502.5) translate(0 17.1)"/><use xlink:href="#c" transform="matrix(1,0,0,1,1065,502.5) translate(0 17.1)"/><use xlink:href="#d" transform="matrix(1,0,0,1,925,534.5) translate(0 17.1)"/><use xlink:href="#e" transform="matrix(1,0,0,1,1065,534.5) translate(0 17.1)"/><use xlink:href="#f" transform="matrix(1,0,0,1,925,566.5) translate(0 17.1)"/><use xlink:href="#g" transform="matrix(1,0,0,1,1065,566.5) translate(0 17.1)"/><use xlink:href="#h" transform="matrix(1,0,0,1,925,598.5) translate(0 17.1)"/><use xlink:href="#i" transform="matrix(1,0,0,1,1065,598.5) translate(0 17.1)"/><use xlink:href="#j" transform="matrix(1,0,0,1,925,630.5) translate(0 17.1)"/><use xlink:href="#g" transform="matrix(1,0,0,1,1065,630.5) translate(0 17.1)"/><use xlink:href="#k" transform="matrix(1,0,0,1,925,662.5) translate(0 17.1)"/><use xlink:href="#g" transform="matrix(1,0,0,1,1065,662.5) translate(0 17.1)"/><use xlink:href="#l" transform="matrix(1,0,0,1,925,694.5) translate(0 17.1)"/><use xlink:href="#m" transform="matrix(1,0,0,1,1065,694.5) translate(0 17.1)"/><use xlink:href="#n" transform="matrix(1,0,0,1,925,726.5) translate(0 17.1)"/><use xlink:href="#m" transform="matrix(1,0,0,1,1065,726.5) translate(0 17.1)"/><use xlink:href="#o" transform="matrix(1,0,0,1,925,758.5) translate(0 17.1)"/><use xlink:href="#m" transform="matrix(1,0,0,1,1065,758.5) translate(0 17.1)"/><use xlink:href="#p" transform="matrix(1,0,0,1,925,790.5) translate(0 17.1)"/><use xlink:href="#q" transform="matrix(1,0,0,1,1065,790.5) translate(0 17.1)"/><path d="M420 160h280v33H420z" fill="#fff"/><path d="M420 192h280v33H420z" fill="#e6e6e6"/><path d="M420 224h280v33H420z" fill="#fff"/><path d="M420 256h280v32H420z" fill="#e6e6e6"/><path d="M420 120h280v40H420z" fill="#c1e4f7"/><path d="M420 125c0-2.76 2.24-5 5-5h270c2.76 0 5 2.24 5 5v158c0 2.76-2.24 5-5 5H425c-2.76 0-5-2.24-5-5zM420 160h280M558.28 160v128" stroke="#333" fill="none"/><use xlink:href="#r" transform="matrix(1,0,0,1,430,120) translate(83.625 23.6)"/><use xlink:href="#b" transform="matrix(1,0,0,1,425,162.5) translate(0 17.1)"/><use xlink:href="#c" transform="matrix(1,0,0,1,563.2798345758615,162.5) translate(0 17.1)"/><use xlink:href="#s" transform="matrix(1,0,0,1,425,194.5) translate(0 17.1)"/><use xlink:href="#t" transform="matrix(1,0,0,1,563.2798345758615,194.5) translate(0 17.1)"/><use xlink:href="#u" transform="matrix(1,0,0,1,425,226.5) translate(0 17.1)"/><use xlink:href="#v" transform="matrix(1,0,0,1,563.2798345758615,226.5) translate(0 17.1)"/><use xlink:href="#w" transform="matrix(1,0,0,1,425,258.5) translate(0 17.1)"/><use xlink:href="#v" transform="matrix(1,0,0,1,563.2798345758615,258.5) translate(0 17.1)"/><path d="M1319 644h-102.12" stroke="#333" fill="none"/><path d="M1319.5 644.5h-.5v-1h.5z" fill="#333"/><path d="M1202.12 644l14.26-4.64v9.28z" stroke="#333" fill="#333"/><path d="M1216.88 580H1319" stroke="#333" fill="none"/><path d="M1202.12 580l14.26-4.64v9.28z" stroke="#333" fill="#333"/><path d="M1319.5 580.5h-.5v-1h.5z" fill="#333"/><path d="M1320 600h280v33h-280z" fill="#fff"/><path d="M1320 632h280v32h-280z" fill="#e6e6e6"/><path d="M1320 560h280v40h-280z" fill="#c1e4f7"/><path d="M1320 565c0-2.76 2.24-5 5-5h270c2.76 0 5 2.24 5 5v94c0 2.76-2.24 5-5 5h-270c-2.76 0-5-2.24-5-5zM1320 600h280M1460 600v64" stroke="#333" fill="none"/><use xlink:href="#x" transform="matrix(1,0,0,1,1330,560) translate(63.82499999999999 23.6)"/><use xlink:href="#y" transform="matrix(1,0,0,1,1325,602.5) translate(0 17.1)"/><use xlink:href="#c" transform="matrix(1,0,0,1,1465,602.5) translate(0 17.1)"/><use xlink:href="#z" transform="matrix(1,0,0,1,1325,634.5) translate(0 17.1)"/><use xlink:href="#c" transform="matrix(1,0,0,1,1465,634.5) translate(0 17.1)"/><path d="M1320 756h280v33h-280z" fill="#fff"/><path d="M1320 788h280v32h-280z" fill="#e6e6e6"/><path d="M1320 716h280v40h-280z" fill="#c1e4f7"/><path d="M1320 721c0-2.76 2.24-5 5-5h270c2.76 0 5 2.24 5 5v94c0 2.76-2.24 5-5 5h-270c-2.76 0-5-2.24-5-5zM1320 756h280M1460 756v64" stroke="#333" fill="none"/><use xlink:href="#A" transform="matrix(1,0,0,1,1330,716) translate(78.625 23.6)"/><use xlink:href="#B" transform="matrix(1,0,0,1,1325,758.5) translate(0 17.1)"/><use xlink:href="#c" transform="matrix(1,0,0,1,1465,758.5) translate(0 17.1)"/><use xlink:href="#C" transform="matrix(1,0,0,1,1325,790.5) translate(0 17.1)"/><use xlink:href="#c" transform="matrix(1,0,0,1,1465,790.5) translate(0 17.1)"/><path d="M1319 740h-102.12" stroke="#333" fill="none"/><path d="M1319.5 740.5h-.5v-1h.5z" fill="#333"/><path d="M1202.12 740l14.26-4.64v9.28z" stroke="#333" fill="#333"/><path d="M1216.88 804H1319" stroke="#333" fill="none"/><path d="M1202.12 804l14.26-4.64v9.28z" stroke="#333" fill="#333"/><path d="M1319.5 804.5h-.5v-1h.5z" fill="#333"/><path d="M560 304.88V504c0 6.63 5.37 12 12 12h347" stroke="#333" fill="none"/><path d="M560 290.12l4.64 14.26h-9.28z" stroke="#333" fill="#333"/><path d="M919.5 516.5h-.5v-1h.5z" fill="#333"/><path d="M1220 360h280v33h-280z" fill="#fff"/><path d="M1220 392h280v32h-280z" fill="#e6e6e6"/><path d="M1220 320h280v40h-280z" fill="#c1e4f7"/><path d="M1220 325c0-2.76 2.24-5 5-5h270c2.76 0 5 2.24 5 5v94c0 2.76-2.24 5-5 5h-270c-2.76 0-5-2.24-5-5zM1220 360h280M1360 360v64" stroke="#333" fill="none"/><use xlink:href="#D" transform="matrix(1,0,0,1,1230,320) translate(109.55 23.6)"/><use xlink:href="#E" transform="matrix(1,0,0,1,1225,362.5) translate(0 17.1)"/><use xlink:href="#c" transform="matrix(1,0,0,1,1365,362.5) translate(0 17.1)"/><use xlink:href="#F" transform="matrix(1,0,0,1,1225,394.5) translate(0 17.1)"/><use xlink:href="#c" transform="matrix(1,0,0,1,1365,394.5) translate(0 17.1)"/><path d="M1216.88 516h73.8c6.6 0 12-5.37 12-12v-79" stroke="#333" fill="none"/><path d="M1202.12 516l14.26-4.64v9.28z" stroke="#333" fill="#333"/><path d="M1303.17 425h-1v-.5h1z" fill="#333"/><path d="M1301.33 319v-99c0-6.63-5.37-12-12-12h-92.45" stroke="#333" fill="none"/><path d="M1301.83 319.5h-1v-.5h1z" fill="#333"/><path d="M1182.12 208l14.26-4.64v9.28z" stroke="#333" fill="#333"/><path d="M900 160h280v33H900z" fill="#fff"/><path d="M900 192h280v33H900z" fill="#e6e6e6"/><path d="M900 224h280v33H900z" fill="#fff"/><path d="M900 256h280v32H900z" fill="#e6e6e6"/><path d="M900 120h280v40H900z" fill="#c1e4f7"/><path d="M900 125c0-2.76 2.24-5 5-5h270c2.76 0 5 2.24 5 5v158c0 2.76-2.24 5-5 5H905c-2.76 0-5-2.24-5-5zM900 160h280M1038.28 160v128" stroke="#333" fill="none"/><use xlink:href="#G" transform="matrix(1,0,0,1,910,120) translate(105.525 23.6)"/><use xlink:href="#b" transform="matrix(1,0,0,1,905,162.5) translate(0 17.1)"/><use xlink:href="#c" transform="matrix(1,0,0,1,1043.2798345758615,162.5) translate(0 17.1)"/><use xlink:href="#l" transform="matrix(1,0,0,1,905,194.5) translate(0 17.1)"/><use xlink:href="#t" transform="matrix(1,0,0,1,1043.2798345758615,194.5) translate(0 17.1)"/><use xlink:href="#H" transform="matrix(1,0,0,1,905,226.5) translate(0 17.1)"/><use xlink:href="#I" transform="matrix(1,0,0,1,1043.2798345758615,226.5) translate(0 17.1)"/><use xlink:href="#u" transform="matrix(1,0,0,1,905,258.5) translate(0 17.1)"/><use xlink:href="#v" transform="matrix(1,0,0,1,1043.2798345758615,258.5) translate(0 17.1)"/><defs><path fill="#333" d="M76-105c-23 59 45 89 88 55 12-10 18-24 22-45l30-153h51C238-143 259 4 118 4 48 4 11-39 25-112l26-136h52" id="J"/><path fill="#333" d="M178-136c88 48 22 151-73 140C49-3 12-15 4-64l51-9c1 50 111 53 115 3-16-63-132-20-133-112 0-93 190-91 199-10l-50 12c-4-41-93-50-97-4 7 38 59 32 89 48" id="K"/><path fill="#333" d="M6 0l48-248h195l-8 40H98l-12 63h132l-7 40H79L66-40h150l-8 40H6" id="L"/><path fill="#333" d="M258-177c0 46-32 67-71 75L235 0h-57l-41-94H76L58 0H6l48-248c89 2 204-19 204 71zm-53 3c0-46-63-30-107-33l-14 73c51-2 120 13 121-40" id="M"/><g id="a"><use transform="matrix(0.05,0,0,0.05,0,0)" xlink:href="#J"/><use transform="matrix(0.05,0,0,0.05,12.950000000000001,0)" xlink:href="#K"/><use transform="matrix(0.05,0,0,0.05,24.950000000000003,0)" xlink:href="#L"/><use transform="matrix(0.05,0,0,0.05,36.95,0)" xlink:href="#M"/></g><path fill="#333" d="M50-224l7-37h49l-7 37H50zM6 0l37-190h49L55 0H6" id="N"/><path fill="#333" d="M132-28C118-9 101 4 69 4 30 4 10-23 10-62c0-70 24-129 92-132 31-1 47 14 56 35l19-102h49L179 0h-49zM62-69c0 22 7 39 29 39 45-2 54-45 57-90 2-27-10-40-33-40-44 0-53 48-53 91" id="O"/><g id="b"><use transform="matrix(0.05,0,0,0.05,0,0)" xlink:href="#N"/><use transform="matrix(0.05,0,0,0.05,5,0)" xlink:href="#O"/></g><path fill="#333" d="M109 0H50L19-190h51L86-37l77-153h54" id="P"/><path fill="#333" d="M166-52c-4 17 5 29 24 23l-3 27c-30 11-74 1-67-34C105-15 91 4 56 4 23 4 3-15 2-49c0-64 63-67 128-67 10-22 3-53-29-45-13 3-22 10-25 24l-46-5c5-64 156-77 153 0-1 33-11 60-17 90zM97-88c-44-9-64 57-19 57 31 0 42-28 47-57H97" id="Q"/><path fill="#333" d="M84-151c13-25 34-51 72-40l-8 41C67-170 71-64 56 0H6l36-190h47" id="R"/><path fill="#333" d="M67-101c-8 29-7 73 27 71 23-2 32-16 39-37l48 9C170-19 141 4 91 4 36 4 7-28 12-86c6-75 61-124 140-103 26 7 40 29 43 59l-50 4c-1-20-9-34-29-34-35 0-41 29-49 59" id="S"/><path fill="#333" d="M150-105c8-23 8-54-22-51-68 7-54 98-72 156H6l50-261h50L85-158c15-20 33-36 66-36 95 0 34 128 28 194h-49" id="T"/><path fill="#333" d="M13-52c0-97 37-163 91-209h50c-53 52-92 115-92 212 0 48 8 90 25 124H39C22 40 13-2 13-52" id="U"/><path fill="#333" d="M131-73c0-31-25-35-58-33l8-40c36 2 64-5 65-39 0-17-10-28-28-27-23 1-35 12-41 32l-47-9c11-39 39-63 90-62 44 1 76 17 76 60 0 42-26 59-63 64 28 5 48 20 48 54C181 22 9 32 3-60l49-7c3 21 16 31 40 31s39-13 39-37" id="V"/><path fill="#333" d="M121-251c83 0 93 87 42 126-35 27-77 48-103 84h115l-7 41H-6C6-94 102-103 141-168c11-20 3-46-24-44-23 2-33 13-39 32l-47-10c12-38 39-61 90-61" id="W"/><path fill="#333" d="M109-139C109-39 71 27 18 75h-50C22 21 61-44 61-142c0-46-11-87-27-119h47c17 31 28 75 28 122" id="X"/><g id="c"><use transform="matrix(0.05,0,0,0.05,0,0)" xlink:href="#P"/><use transform="matrix(0.05,0,0,0.05,10,0)" xlink:href="#Q"/><use transform="matrix(0.05,0,0,0.05,20,0)" xlink:href="#R"/><use transform="matrix(0.05,0,0,0.05,27,0)" xlink:href="#S"/><use transform="matrix(0.05,0,0,0.05,37,0)" xlink:href="#T"/><use transform="matrix(0.05,0,0,0.05,47.95,0)" xlink:href="#Q"/><use transform="matrix(0.05,0,0,0.05,57.95,0)" xlink:href="#R"/><use transform="matrix(0.05,0,0,0.05,64.95,0)" xlink:href="#U"/><use transform="matrix(0.05,0,0,0.05,70.9,0)" xlink:href="#V"/><use transform="matrix(0.05,0,0,0.05,80.9,0)" xlink:href="#W"/><use transform="matrix(0.05,0,0,0.05,90.9,0)" xlink:href="#X"/></g><path fill="#333" d="M67 3c-93-2-31-127-26-193h32L48-50c-3 39 53 32 70 12 30-34 30-101 43-152h32L157 0h-30c1-10 6-24 4-33-14 20-29 37-64 36" id="Y"/><path fill="#333" d="M55-144c13 50 104 24 104 88C159 21 15 23 1-39l26-10c6 40 102 42 102-4-13-50-104-23-104-87 0-71 143-71 148-8l-29 4c-5-35-85-37-89 0" id="Z"/><path fill="#333" d="M111-194c62-3 86 47 72 106H45c-7 38 6 69 45 68 27-1 43-14 53-32l24 11C152-15 129 4 87 4 38 3 12-23 12-71c0-70 32-119 99-123zm44 81c14-66-71-72-95-28-4 8-8 17-11 28h106" id="aa"/><path fill="#333" d="M66-151c12-25 30-51 66-40l-6 26C45-176 58-65 38 0H6l36-190h30" id="ab"/><path fill="#333" d="M67-158c22-48 132-52 116 29L158 0h-32l25-140c3-38-53-32-70-12C52-117 51-52 38 0H6l36-190h30" id="ac"/><path fill="#333" d="M165-48c-4 18 1 34 23 27l-3 20c-29 8-62 0-52-35h-2C116-14 99 4 63 4 30 4 8-16 8-49c0-68 71-67 138-67 10-26 0-56-31-54-26 1-42 9-47 31l-32-5c8-67 160-71 144 15-5 28-9 54-15 81zM42-50c3 52 80 24 89-6 7-12 7-24 11-38-47 1-103-4-100 44" id="ad"/><path fill="#333" d="M248-111c6-24 9-61-24-58-72 9-57 108-77 169h-31l26-142c3-37-50-30-64-10C52-115 50-51 37 0H6l36-190h30c-1 10-6 24-4 32 13-43 101-52 105 5 13-22 29-41 61-41 90 0 28 129 23 194h-31" id="ae"/><g id="d"><use transform="matrix(0.05,0,0,0.05,0,0)" xlink:href="#Y"/><use transform="matrix(0.05,0,0,0.05,10,0)" xlink:href="#Z"/><use transform="matrix(0.05,0,0,0.05,19,0)" xlink:href="#aa"/><use transform="matrix(0.05,0,0,0.05,29,0)" xlink:href="#ab"/><use transform="matrix(0.05,0,0,0.05,34.95,0)" xlink:href="#ac"/><use transform="matrix(0.05,0,0,0.05,44.95,0)" xlink:href="#ad"/><use transform="matrix(0.05,0,0,0.05,54.95,0)" xlink:href="#ae"/><use transform="matrix(0.05,0,0,0.05,69.9,0)" xlink:href="#aa"/></g><path fill="#333" d="M89 0H52L20-190h33L74-25l89-165h34" id="af"/><path fill="#333" d="M44-68c0 29 11 47 38 47 30 0 42-19 51-41l28 9C148-21 126 4 82 4 31 4 10-29 12-85c3-77 74-140 146-93 12 8 15 23 18 40l-31 5c-1-22-13-36-36-36-52 0-65 49-65 101" id="ag"/><path fill="#333" d="M67-158c15-20 31-36 64-36 94 0 33 127 27 194h-32l25-140c3-38-53-32-70-12C52-117 51-51 37 0H6l51-261h31" id="ah"/><path fill="#333" d="M17-49c1-102 45-165 103-212h30C92-210 49-145 49-46 49 4 63 43 85 75H54C30 43 18 2 17-49" id="ai"/><path fill="#333" d="M123-251c66 0 92 69 53 113C138-94 73-75 39-27h128l-5 27H-2c17-92 123-93 159-163 14-28-1-64-36-62-29 2-46 17-54 41l-30-6c13-36 37-61 86-61" id="aj"/><path fill="#333" d="M16-82c0-90 25-169 113-169 48 0 68 33 68 82C197-79 170 4 84 4 37 4 16-31 16-82zm30 5c0 32 11 55 40 55 69 0 76-79 80-149 2-32-10-55-39-55-69 0-81 81-81 149" id="ak"/><path fill="#333" d="M98-137C97-35 54 29-4 75h-31C23 23 67-41 67-140c0-50-15-89-37-121h31c24 32 36 73 37 124" id="al"/><g id="e"><use transform="matrix(0.05,0,0,0.05,0,0)" xlink:href="#af"/><use transform="matrix(0.05,0,0,0.05,9,0)" xlink:href="#ad"/><use transform="matrix(0.05,0,0,0.05,19,0)" xlink:href="#ab"/><use transform="matrix(0.05,0,0,0.05,24.95,0)" xlink:href="#ag"/><use transform="matrix(0.05,0,0,0.05,33.95,0)" xlink:href="#ah"/><use transform="matrix(0.05,0,0,0.05,43.95,0)" xlink:href="#ad"/><use transform="matrix(0.05,0,0,0.05,53.95,0)" xlink:href="#ab"/><use transform="matrix(0.05,0,0,0.05,59.900000000000006,0)" xlink:href="#ai"/><use transform="matrix(0.05,0,0,0.05,65.85000000000001,0)" xlink:href="#aj"/><use transform="matrix(0.05,0,0,0.05,75.85000000000001,0)" xlink:href="#ak"/><use transform="matrix(0.05,0,0,0.05,85.85000000000001,0)" xlink:href="#al"/></g><path fill="#333" d="M50-231l6-30h32l-6 30H50zM6 0l37-190h31L37 0H6" id="am"/><path fill="#333" d="M6 0l50-261h32L37 0H6" id="an"/><g id="f"><use transform="matrix(0.05,0,0,0.05,0,0)" xlink:href="#aa"/><use transform="matrix(0.05,0,0,0.05,10,0)" xlink:href="#ae"/><use transform="matrix(0.05,0,0,0.05,24.950000000000003,0)" xlink:href="#ad"/><use transform="matrix(0.05,0,0,0.05,34.95,0)" xlink:href="#am"/><use transform="matrix(0.05,0,0,0.05,38.900000000000006,0)" xlink:href="#an"/></g><path fill="#333" d="M151-85c6-55-69-56-94-29H26l34-134h141l-5 27H84l-20 79c41-34 127-11 121 53C199 13 30 38 8-54l29-8C52 0 159-13 151-85" id="ao"/><g id="g"><use transform="matrix(0.05,0,0,0.05,0,0)" xlink:href="#af"/><use transform="matrix(0.05,0,0,0.05,9,0)" xlink:href="#ad"/><use transform="matrix(0.05,0,0,0.05,19,0)" xlink:href="#ab"/><use transform="matrix(0.05,0,0,0.05,24.95,0)" xlink:href="#ag"/><use transform="matrix(0.05,0,0,0.05,33.95,0)" xlink:href="#ah"/><use transform="matrix(0.05,0,0,0.05,43.95,0)" xlink:href="#ad"/><use transform="matrix(0.05,0,0,0.05,53.95,0)" xlink:href="#ab"/><use transform="matrix(0.05,0,0,0.05,59.900000000000006,0)" xlink:href="#ai"/><use transform="matrix(0.05,0,0,0.05,65.85000000000001,0)" xlink:href="#ao"/><use transform="matrix(0.05,0,0,0.05,75.85000000000001,0)" xlink:href="#ak"/><use transform="matrix(0.05,0,0,0.05,85.85000000000001,0)" xlink:href="#al"/></g><path fill="#333" d="M67-162c32-53 139-36 121 50C175-51 163 2 97 4 68 4 52-11 42-31 38 6 28 39 22 75H-9l50-265h29c-1 10 0 20-3 28zm89 36c0-26-10-43-35-43-54 0-67 50-69 103-1 29 14 45 42 46 53 0 62-58 62-106" id="ap"/><path fill="#333" d="M188 0h-37l-8-164L71 0H34L18-190h31l8 164 75-164h34l8 164 74-164h31" id="aq"/><path fill="#333" d="M30-147c31-64 166-65 159 27C183-49 158 1 86 4 9 8 1-88 30-147zM88-20c53 0 68-48 68-100 0-31-11-51-44-50-52 1-68 46-68 97 0 32 13 53 44 53" id="ar"/><path fill="#333" d="M133-28C103 26-5 8 13-77c13-62 24-115 90-117 29-1 46 15 56 35l19-102h32L160 0h-30zM45-64c-2 27 10 43 35 43 54-1 69-50 69-103 0-29-15-46-42-46-53-1-58 58-62 106" id="as"/><g id="h"><use transform="matrix(0.05,0,0,0.05,0,0)" xlink:href="#ap"/><use transform="matrix(0.05,0,0,0.05,10,0)" xlink:href="#ad"/><use transform="matrix(0.05,0,0,0.05,20,0)" xlink:href="#Z"/><use transform="matrix(0.05,0,0,0.05,29,0)" xlink:href="#Z"/><use transform="matrix(0.05,0,0,0.05,38,0)" xlink:href="#aq"/><use transform="matrix(0.05,0,0,0.05,50.95,0)" xlink:href="#ar"/><use transform="matrix(0.05,0,0,0.05,60.95,0)" xlink:href="#ab"/><use transform="matrix(0.05,0,0,0.05,66.9,0)" xlink:href="#as"/></g><path fill="#333" d="M9 0l6-27h63l36-188-63 39 6-31 66-41h29L110-27h60l-5 27H9" id="at"/><path fill="#333" d="M39-185c1-48 36-66 85-66 42 0 74 18 74 59 0 38-25 57-56 64 23 7 40 22 40 52 0 55-39 80-94 80C40 4 10-17 9-63c-1-44 31-60 63-71-20-7-33-25-33-51zm31 3c0 26 17 39 46 39 34 0 48-18 49-48 0-25-18-36-45-36-32 0-50 15-50 45zm79 105c0-29-19-41-50-41-37 0-57 20-57 55 0 29 19 42 49 42 36 0 58-19 58-56" id="au"/><g id="i"><use transform="matrix(0.05,0,0,0.05,0,0)" xlink:href="#af"/><use transform="matrix(0.05,0,0,0.05,9,0)" xlink:href="#ad"/><use transform="matrix(0.05,0,0,0.05,19,0)" xlink:href="#ab"/><use transform="matrix(0.05,0,0,0.05,24.95,0)" xlink:href="#ag"/><use transform="matrix(0.05,0,0,0.05,33.95,0)" xlink:href="#ah"/><use transform="matrix(0.05,0,0,0.05,43.95,0)" xlink:href="#ad"/><use transform="matrix(0.05,0,0,0.05,53.95,0)" xlink:href="#ab"/><use transform="matrix(0.05,0,0,0.05,59.900000000000006,0)" xlink:href="#ai"/><use transform="matrix(0.05,0,0,0.05,65.85000000000001,0)" xlink:href="#at"/><use transform="matrix(0.05,0,0,0.05,74.50000000000001,0)" xlink:href="#at"/><use transform="matrix(0.05,0,0,0.05,84.50000000000001,0)" xlink:href="#au"/><use transform="matrix(0.05,0,0,0.05,94.50000000000001,0)" xlink:href="#al"/></g><path fill="#333" d="M51-54c-9 22 5 41 31 30L79-1C43 14 10-4 19-52l22-115H19l5-23h22l19-43h21l-9 43h35l-4 23H73" id="av"/><path fill="#333" d="M125-24c46 0 70-25 89-51l25 16C214-24 183 4 123 4 8 4-5-146 60-208c32-50 158-61 191-5 5 7 9 14 11 22l-32 10c-9-28-33-43-69-43-74 0-108 51-108 125 0 46 24 75 72 75" id="aw"/><path fill="#333" d="M198-190L69 30C53 58 25 83-20 72c4-11-1-27 19-22 33-1 43-29 59-52L20-190h32L79-34l84-156h35" id="ax"/><g id="j"><use transform="matrix(0.05,0,0,0.05,0,0)" xlink:href="#ag"/><use transform="matrix(0.05,0,0,0.05,9,0)" xlink:href="#Y"/><use transform="matrix(0.05,0,0,0.05,19,0)" xlink:href="#ab"/><use transform="matrix(0.05,0,0,0.05,24.95,0)" xlink:href="#ab"/><use transform="matrix(0.05,0,0,0.05,30.899999999999995,0)" xlink:href="#aa"/><use transform="matrix(0.05,0,0,0.05,40.9,0)" xlink:href="#ac"/><use transform="matrix(0.05,0,0,0.05,50.9,0)" xlink:href="#av"/><use transform="matrix(0.05,0,0,0.05,55.900000000000006,0)" xlink:href="#aw"/><use transform="matrix(0.05,0,0,0.05,68.85,0)" xlink:href="#am"/><use transform="matrix(0.05,0,0,0.05,72.8,0)" xlink:href="#av"/><use transform="matrix(0.05,0,0,0.05,77.8,0)" xlink:href="#ax"/></g><path fill="#333" d="M76-167L44 0H12l33-167H18l4-23h27c3-47 25-81 82-69l-4 24c-35-8-44 15-46 45h37l-5 23H76" id="ay"/><g id="k"><use transform="matrix(0.05,0,0,0.05,0,0)" xlink:href="#ay"/><use transform="matrix(0.05,0,0,0.05,5,0)" xlink:href="#ab"/><use transform="matrix(0.05,0,0,0.05,10.95,0)" xlink:href="#ar"/><use transform="matrix(0.05,0,0,0.05,20.95,0)" xlink:href="#ae"/><use transform="matrix(0.05,0,0,0.05,35.9,0)" xlink:href="#aw"/><use transform="matrix(0.05,0,0,0.05,48.85,0)" xlink:href="#am"/><use transform="matrix(0.05,0,0,0.05,52.800000000000004,0)" xlink:href="#av"/><use transform="matrix(0.05,0,0,0.05,57.800000000000004,0)" xlink:href="#ax"/></g><g id="l"><use transform="matrix(0.05,0,0,0.05,0,0)" xlink:href="#as"/><use transform="matrix(0.05,0,0,0.05,10,0)" xlink:href="#aa"/><use transform="matrix(0.05,0,0,0.05,20,0)" xlink:href="#Z"/><use transform="matrix(0.05,0,0,0.05,29,0)" xlink:href="#ag"/><use transform="matrix(0.05,0,0,0.05,38,0)" xlink:href="#ab"/><use transform="matrix(0.05,0,0,0.05,43.95,0)" xlink:href="#am"/><use transform="matrix(0.05,0,0,0.05,47.900000000000006,0)" xlink:href="#ap"/><use transform="matrix(0.05,0,0,0.05,57.900000000000006,0)" xlink:href="#av"/><use transform="matrix(0.05,0,0,0.05,62.900000000000006,0)" xlink:href="#am"/><use transform="matrix(0.05,0,0,0.05,66.85000000000001,0)" xlink:href="#ar"/><use transform="matrix(0.05,0,0,0.05,76.85000000000001,0)" xlink:href="#ac"/></g><g id="m"><use transform="matrix(0.05,0,0,0.05,0,0)" xlink:href="#af"/><use transform="matrix(0.05,0,0,0.05,9,0)" xlink:href="#ad"/><use transform="matrix(0.05,0,0,0.05,19,0)" xlink:href="#ab"/><use transform="matrix(0.05,0,0,0.05,24.95,0)" xlink:href="#ag"/><use transform="matrix(0.05,0,0,0.05,33.95,0)" xlink:href="#ah"/><use transform="matrix(0.05,0,0,0.05,43.95,0)" xlink:href="#ad"/><use transform="matrix(0.05,0,0,0.05,53.95,0)" xlink:href="#ab"/><use transform="matrix(0.05,0,0,0.05,59.900000000000006,0)" xlink:href="#ai"/><use transform="matrix(0.05,0,0,0.05,65.85000000000001,0)" xlink:href="#aj"/><use transform="matrix(0.05,0,0,0.05,75.85000000000001,0)" xlink:href="#ao"/><use transform="matrix(0.05,0,0,0.05,85.85000000000001,0)" xlink:href="#ao"/><use transform="matrix(0.05,0,0,0.05,95.85000000000001,0)" xlink:href="#al"/></g><path fill="#333" d="M238-179c0 84-86 86-175 82L45 0H11l48-248c82 0 179-12 179 69zm-34 1c0-53-64-42-116-43l-19 98c63 0 135 9 135-55" id="az"/><g id="n"><use transform="matrix(0.05,0,0,0.05,0,0)" xlink:href="#ap"/><use transform="matrix(0.05,0,0,0.05,10,0)" xlink:href="#ab"/><use transform="matrix(0.05,0,0,0.05,15.949999999999998,0)" xlink:href="#ar"/><use transform="matrix(0.05,0,0,0.05,25.950000000000003,0)" xlink:href="#ay"/><use transform="matrix(0.05,0,0,0.05,30.950000000000003,0)" xlink:href="#am"/><use transform="matrix(0.05,0,0,0.05,34.9,0)" xlink:href="#an"/><use transform="matrix(0.05,0,0,0.05,38.85,0)" xlink:href="#aa"/><use transform="matrix(0.05,0,0,0.05,48.85,0)" xlink:href="#az"/><use transform="matrix(0.05,0,0,0.05,60.85,0)" xlink:href="#am"/><use transform="matrix(0.05,0,0,0.05,64.8,0)" xlink:href="#ag"/><use transform="matrix(0.05,0,0,0.05,73.8,0)" xlink:href="#av"/><use transform="matrix(0.05,0,0,0.05,78.8,0)" xlink:href="#Y"/><use transform="matrix(0.05,0,0,0.05,88.8,0)" xlink:href="#ab"/><use transform="matrix(0.05,0,0,0.05,94.75,0)" xlink:href="#aa"/></g><g id="o"><use transform="matrix(0.05,0,0,0.05,0,0)" xlink:href="#ag"/><use transform="matrix(0.05,0,0,0.05,9,0)" xlink:href="#ar"/><use transform="matrix(0.05,0,0,0.05,19,0)" xlink:href="#af"/><use transform="matrix(0.05,0,0,0.05,28,0)" xlink:href="#aa"/><use transform="matrix(0.05,0,0,0.05,38,0)" xlink:href="#ab"/><use transform="matrix(0.05,0,0,0.05,43.95,0)" xlink:href="#az"/><use transform="matrix(0.05,0,0,0.05,55.95,0)" xlink:href="#am"/><use transform="matrix(0.05,0,0,0.05,59.900000000000006,0)" xlink:href="#ag"/><use transform="matrix(0.05,0,0,0.05,68.9,0)" xlink:href="#av"/><use transform="matrix(0.05,0,0,0.05,73.9,0)" xlink:href="#Y"/><use transform="matrix(0.05,0,0,0.05,83.9,0)" xlink:href="#ab"/><use transform="matrix(0.05,0,0,0.05,89.85000000000001,0)" xlink:href="#aa"/></g><path fill="#333" d="M187 0l-14-72H61L19 0h-37l149-248h38L221 0h-34zm-19-99l-22-123L76-99h92" id="aA"/><g id="p"><use transform="matrix(0.05,0,0,0.05,0,0)" xlink:href="#am"/><use transform="matrix(0.05,0,0,0.05,3.95,0)" xlink:href="#Z"/><use transform="matrix(0.05,0,0,0.05,12.949999999999998,0)" xlink:href="#aA"/><use transform="matrix(0.05,0,0,0.05,24.95,0)" xlink:href="#as"/><use transform="matrix(0.05,0,0,0.05,34.95,0)" xlink:href="#ae"/><use transform="matrix(0.05,0,0,0.05,49.900000000000006,0)" xlink:href="#am"/><use transform="matrix(0.05,0,0,0.05,53.85,0)" xlink:href="#ac"/></g><path fill="#333" d="M68-162c25-46 127-43 121 31C183-60 169 1 98 4 69 5 53-11 43-31L36 0H5l52-261h31zm88 36c2-27-9-43-34-43-55 0-70 51-70 103 0 29 15 45 43 46 52 0 58-58 61-106" id="aB"/><g id="q"><use transform="matrix(0.05,0,0,0.05,0,0)" xlink:href="#aB"/><use transform="matrix(0.05,0,0,0.05,10,0)" xlink:href="#ar"/><use transform="matrix(0.05,0,0,0.05,20,0)" xlink:href="#ar"/><use transform="matrix(0.05,0,0,0.05,30,0)" xlink:href="#an"/><use transform="matrix(0.05,0,0,0.05,33.95,0)" xlink:href="#aa"/><use transform="matrix(0.05,0,0,0.05,43.95,0)" xlink:href="#ad"/><use transform="matrix(0.05,0,0,0.05,53.95,0)" xlink:href="#ac"/></g><path fill="#333" d="M161-211c-63 0-91 46-91 110 0 39 17 65 58 64 38-1 60-20 74-45l40 20C220-23 184 0 125 4 9 13-10-144 57-208c33-50 166-62 196-1 4 8 9 18 11 27l-48 12c-6-24-25-41-55-41" id="aC"/><path fill="#333" d="M18-101c0-91 52-150 145-150 68 0 111 34 111 101C274-54 221 4 128 4 59 4 18-33 18-101zm202-32c4-46-15-77-59-77-65 0-88 46-91 108-2 41 22 65 60 65 60 0 84-40 90-96" id="aD"/><path fill="#333" d="M212 0l43-212L151 0h-37L90-212C82-137 65-70 52 0H6l48-248h70l20 187 93-187h69L258 0h-46" id="aE"/><path fill="#333" d="M155 0L90-199 52 0H6l48-248h62l66 201 38-201h46L218 0h-63" id="aF"/><path fill="#333" d="M157-208L117 0H65l40-208H25l8-40h212l-8 40h-80" id="aG"/><g id="r"><use transform="matrix(0.05,0,0,0.05,0,0)" xlink:href="#aC"/><use transform="matrix(0.05,0,0,0.05,12.950000000000001,0)" xlink:href="#aD"/><use transform="matrix(0.05,0,0,0.05,26.950000000000003,0)" xlink:href="#aE"/><use transform="matrix(0.05,0,0,0.05,41.900000000000006,0)" xlink:href="#aE"/><use transform="matrix(0.05,0,0,0.05,56.85,0)" xlink:href="#L"/><use transform="matrix(0.05,0,0,0.05,68.85000000000001,0)" xlink:href="#aF"/><use transform="matrix(0.05,0,0,0.05,81.80000000000001,0)" xlink:href="#aG"/></g><path fill="#333" d="M103-194c29 0 47 14 56 36 2-11 5-23 8-32h30L160-5C157 61 82 97 21 62 9 55 4 45 1 30l28-7c7 42 83 31 92-3 4-16 9-38 13-55-13 20-29 36-62 36-40 0-60-25-60-64 0-71 23-131 91-131zm4 24c-53 0-58 54-61 104-2 27 10 44 36 44 49 0 65-50 67-102 1-29-15-46-42-46" id="aH"/><g id="s"><use transform="matrix(0.05,0,0,0.05,0,0)" xlink:href="#ae"/><use transform="matrix(0.05,0,0,0.05,14.950000000000001,0)" xlink:href="#aa"/><use transform="matrix(0.05,0,0,0.05,24.950000000000003,0)" xlink:href="#Z"/><use transform="matrix(0.05,0,0,0.05,33.95,0)" xlink:href="#Z"/><use transform="matrix(0.05,0,0,0.05,42.95,0)" xlink:href="#ad"/><use transform="matrix(0.05,0,0,0.05,52.95,0)" xlink:href="#aH"/><use transform="matrix(0.05,0,0,0.05,62.95,0)" xlink:href="#aa"/></g><path fill="#333" d="M124 0L87-78 21 0h-35l86-98-46-92h33l34 74 61-74h37l-83 92 50 98h-34" id="aI"/><g id="t"><use transform="matrix(0.05,0,0,0.05,0,0)" xlink:href="#av"/><use transform="matrix(0.05,0,0,0.05,5,0)" xlink:href="#aa"/><use transform="matrix(0.05,0,0,0.05,15,0)" xlink:href="#aI"/><use transform="matrix(0.05,0,0,0.05,24,0)" xlink:href="#av"/></g><path fill="#333" d="M14 0l48-248h34L48 0H14" id="aJ"/><g id="u"><use transform="matrix(0.05,0,0,0.05,0,0)" xlink:href="#Y"/><use transform="matrix(0.05,0,0,0.05,10,0)" xlink:href="#Z"/><use transform="matrix(0.05,0,0,0.05,19,0)" xlink:href="#aa"/><use transform="matrix(0.05,0,0,0.05,29,0)" xlink:href="#ab"/><use transform="matrix(0.05,0,0,0.05,34.95,0)" xlink:href="#aJ"/><use transform="matrix(0.05,0,0,0.05,39.95,0)" xlink:href="#as"/></g><path fill="#333" d="M148-71c0-36-31-44-71-41l5-28c46 3 81-6 81-50 0-23-15-35-39-35-30 0-49 17-56 41l-32-3c12-39 42-63 90-64 43 0 69 19 71 60 1 43-30 58-65 66 27 5 49 22 49 53 0 85-133 99-164 35-4-7-7-15-9-22l29-9c8 25 25 45 58 45 34 1 53-17 53-48" id="aK"/><g id="v"><use transform="matrix(0.05,0,0,0.05,0,0)" xlink:href="#af"/><use transform="matrix(0.05,0,0,0.05,9,0)" xlink:href="#ad"/><use transform="matrix(0.05,0,0,0.05,19,0)" xlink:href="#ab"/><use transform="matrix(0.05,0,0,0.05,24.95,0)" xlink:href="#ag"/><use transform="matrix(0.05,0,0,0.05,33.95,0)" xlink:href="#ah"/><use transform="matrix(0.05,0,0,0.05,43.95,0)" xlink:href="#ad"/><use transform="matrix(0.05,0,0,0.05,53.95,0)" xlink:href="#ab"/><use transform="matrix(0.05,0,0,0.05,59.900000000000006,0)" xlink:href="#ai"/><use transform="matrix(0.05,0,0,0.05,65.85000000000001,0)" xlink:href="#aK"/><use transform="matrix(0.05,0,0,0.05,75.85000000000001,0)" xlink:href="#aj"/><use transform="matrix(0.05,0,0,0.05,85.85000000000001,0)" xlink:href="#al"/></g><g id="w"><use transform="matrix(0.05,0,0,0.05,0,0)" xlink:href="#ap"/><use transform="matrix(0.05,0,0,0.05,10,0)" xlink:href="#ar"/><use transform="matrix(0.05,0,0,0.05,20,0)" xlink:href="#Z"/><use transform="matrix(0.05,0,0,0.05,29,0)" xlink:href="#av"/><use transform="matrix(0.05,0,0,0.05,34,0)" xlink:href="#aJ"/><use transform="matrix(0.05,0,0,0.05,39,0)" xlink:href="#as"/></g><path fill="#333" d="M6 0l48-248h52L66-40h133l-8 40H6" id="aL"/><path fill="#333" d="M183 0l-10-63H79L44 0H-7l138-248h61L234 0h-51zm-14-102l-15-108c-16 38-36 73-55 108h70" id="aM"/><path fill="#333" d="M6 0l48-248h52L58 0H6" id="aN"/><path fill="#333" d="M168 0l21-106H79L58 0H6l48-248h52l-19 99h110l19-99h50L218 0h-50" id="aO"/><path fill="#333" d="M241-173c-1 82-78 91-166 86L58 0H6l48-248c87 0 188-12 187 75zm-53 2c0-43-48-36-90-36l-15 80c50 0 105 7 105-44" id="aP"/><g id="x"><use transform="matrix(0.05,0,0,0.05,0,0)" xlink:href="#M"/><use transform="matrix(0.05,0,0,0.05,12.950000000000001,0)" xlink:href="#L"/><use transform="matrix(0.05,0,0,0.05,24.950000000000003,0)" xlink:href="#aL"/><use transform="matrix(0.05,0,0,0.05,35.900000000000006,0)" xlink:href="#aM"/><use transform="matrix(0.05,0,0,0.05,47.50000000000001,0)" xlink:href="#aG"/><use transform="matrix(0.05,0,0,0.05,58.45000000000002,0)" xlink:href="#aN"/><use transform="matrix(0.05,0,0,0.05,63.45000000000002,0)" xlink:href="#aD"/><use transform="matrix(0.05,0,0,0.05,77.45000000000002,0)" xlink:href="#aF"/><use transform="matrix(0.05,0,0,0.05,90.40000000000002,0)" xlink:href="#K"/><use transform="matrix(0.05,0,0,0.05,102.40000000000003,0)" xlink:href="#aO"/><use transform="matrix(0.05,0,0,0.05,115.35000000000002,0)" xlink:href="#aN"/><use transform="matrix(0.05,0,0,0.05,120.35000000000002,0)" xlink:href="#aP"/></g><path fill="#333" d="M69 3c-96 0-34-126-28-193h49L65-57c6 42 62 18 71-6 14-38 17-86 28-127h50L178 0h-47c0-11 4-26 3-33-14 20-30 37-65 36" id="aQ"/><path fill="#333" d="M144-137c-1-29-70-35-71-2 16 41 103 10 103 80C176 9 79 16 32-9 18-17 9-31 4-48l44-6c3 32 80 36 82 1-15-42-103-11-103-82 0-77 157-79 161-8" id="aR"/><path fill="#333" d="M114-194c63-2 87 48 72 110H63c-3 28 1 55 31 54 21-1 32-13 37-29l44 13C160-14 137 4 91 4 41 4 11-22 11-73c0-71 33-119 103-121zm30 77c14-47-50-61-67-22-3 6-6 13-8 22h75" id="aS"/><path fill="#333" d="M-21 44V30h207v14H-21" id="aT"/><path fill="#333" d="M6 0l7-41h62l31-161-67 37 8-42 70-41h48L124-41h57l-8 41H6" id="aU"/><g id="y"><use transform="matrix(0.05,0,0,0.05,0,0)" xlink:href="#aQ"/><use transform="matrix(0.05,0,0,0.05,10.950000000000001,0)" xlink:href="#aR"/><use transform="matrix(0.05,0,0,0.05,20.950000000000003,0)" xlink:href="#aS"/><use transform="matrix(0.05,0,0,0.05,30.950000000000003,0)" xlink:href="#R"/><use transform="matrix(0.05,0,0,0.05,37.95,0)" xlink:href="#aN"/><use transform="matrix(0.05,0,0,0.05,42.95,0)" xlink:href="#O"/><use transform="matrix(0.05,0,0,0.05,53.900000000000006,0)" xlink:href="#aT"/><use transform="matrix(0.05,0,0,0.05,63.900000000000006,0)" xlink:href="#aU"/></g><g id="z"><use transform="matrix(0.05,0,0,0.05,0,0)" xlink:href="#aQ"/><use transform="matrix(0.05,0,0,0.05,10.950000000000001,0)" xlink:href="#aR"/><use transform="matrix(0.05,0,0,0.05,20.950000000000003,0)" xlink:href="#aS"/><use transform="matrix(0.05,0,0,0.05,30.950000000000003,0)" xlink:href="#R"/><use transform="matrix(0.05,0,0,0.05,37.95,0)" xlink:href="#aN"/><use transform="matrix(0.05,0,0,0.05,42.95,0)" xlink:href="#O"/><use transform="matrix(0.05,0,0,0.05,53.900000000000006,0)" xlink:href="#aT"/><use transform="matrix(0.05,0,0,0.05,63.900000000000006,0)" xlink:href="#W"/></g><path fill="#333" d="M98-208l-15 77h118l-8 40H76L58 0H6l48-248h174l-8 40H98" id="aV"/><path fill="#333" d="M253 0h-61l-6-196c-25 68-54 131-82 196H42L26-248h50l7 204 86-204h55l8 204 82-204h51" id="aW"/><g id="A"><use transform="matrix(0.05,0,0,0.05,0,0)" xlink:href="#aV"/><use transform="matrix(0.05,0,0,0.05,10.950000000000001,0)" xlink:href="#aD"/><use transform="matrix(0.05,0,0,0.05,24.950000000000003,0)" xlink:href="#aL"/><use transform="matrix(0.05,0,0,0.05,35.900000000000006,0)" xlink:href="#aL"/><use transform="matrix(0.05,0,0,0.05,46.85000000000001,0)" xlink:href="#aD"/><use transform="matrix(0.05,0,0,0.05,60.85,0)" xlink:href="#aW"/><use transform="matrix(0.05,0,0,0.05,77.80000000000001,0)" xlink:href="#L"/><use transform="matrix(0.05,0,0,0.05,89.80000000000001,0)" xlink:href="#M"/></g><path fill="#333" d="M93-157L62 0H13l31-157H16l6-33h28c2-54 40-81 100-68l-6 32c-29-8-44 9-45 36h38l-7 33H93" id="aX"/><path fill="#333" d="M124-194c51 0 84 22 84 74C207-44 167 4 94 4 43 4 11-23 11-74c0-74 41-120 113-120zM99-30c46 0 58-42 58-86 0-27-11-44-37-44-44 0-55 40-57 84-1 27 10 45 36 46" id="aY"/><path fill="#333" d="M6 0l51-261h49L55 0H6" id="aZ"/><path fill="#333" d="M212 0h-52l-8-156L82 0H30L17-190h46l2 145 66-145h53l8 145 60-145h47" id="ba"/><g id="B"><use transform="matrix(0.05,0,0,0.05,0,0)" xlink:href="#aX"/><use transform="matrix(0.05,0,0,0.05,5.95,0)" xlink:href="#aY"/><use transform="matrix(0.05,0,0,0.05,16.900000000000002,0)" xlink:href="#aZ"/><use transform="matrix(0.05,0,0,0.05,21.900000000000002,0)" xlink:href="#aZ"/><use transform="matrix(0.05,0,0,0.05,26.900000000000002,0)" xlink:href="#aY"/><use transform="matrix(0.05,0,0,0.05,37.85,0)" xlink:href="#ba"/><use transform="matrix(0.05,0,0,0.05,51.85,0)" xlink:href="#aS"/><use transform="matrix(0.05,0,0,0.05,61.85,0)" xlink:href="#R"/><use transform="matrix(0.05,0,0,0.05,68.85,0)" xlink:href="#aN"/><use transform="matrix(0.05,0,0,0.05,73.85,0)" xlink:href="#O"/></g><path fill="#333" d="M151-194c95 0 34 128 28 194h-49l25-134c0-29-45-25-59-9C67-111 69-48 56 0H6l36-190h47l-4 32c15-20 33-36 66-36" id="bb"/><path fill="#333" d="M45-171c29-32 103-29 114 14 2-11 5-23 8-33h47L176-2c-3 70-92 96-155 64C9 56 1 42-1 25l50-5c2 28 48 27 63 11 13-13 20-45 21-66-13 20-30 35-62 36-87 3-60-134-26-172zM94-35c41-3 55-43 55-86 0-24-12-39-35-39-43 0-51 48-51 90 0 22 9 37 31 35" id="bc"/><g id="C"><use transform="matrix(0.05,0,0,0.05,0,0)" xlink:href="#aX"/><use transform="matrix(0.05,0,0,0.05,5.95,0)" xlink:href="#aY"/><use transform="matrix(0.05,0,0,0.05,16.900000000000002,0)" xlink:href="#aZ"/><use transform="matrix(0.05,0,0,0.05,21.900000000000002,0)" xlink:href="#aZ"/><use transform="matrix(0.05,0,0,0.05,26.900000000000002,0)" xlink:href="#aY"/><use transform="matrix(0.05,0,0,0.05,37.85,0)" xlink:href="#ba"/><use transform="matrix(0.05,0,0,0.05,51.85,0)" xlink:href="#N"/><use transform="matrix(0.05,0,0,0.05,56.85,0)" xlink:href="#bb"/><use transform="matrix(0.05,0,0,0.05,67.8,0)" xlink:href="#bc"/><use transform="matrix(0.05,0,0,0.05,78.75,0)" xlink:href="#aN"/><use transform="matrix(0.05,0,0,0.05,83.75,0)" xlink:href="#O"/></g><path fill="#333" d="M175 0l-63-112-37 21L58 0H6l48-248h52L83-135l134-113h65L150-139 232 0h-57" id="bd"/><g id="D"><use transform="matrix(0.05,0,0,0.05,0,0)" xlink:href="#aL"/><use transform="matrix(0.05,0,0,0.05,10.950000000000001,0)" xlink:href="#aN"/><use transform="matrix(0.05,0,0,0.05,15.950000000000001,0)" xlink:href="#bd"/><use transform="matrix(0.05,0,0,0.05,28.900000000000002,0)" xlink:href="#L"/></g><g id="E"><use transform="matrix(0.05,0,0,0.05,0,0)" xlink:href="#aQ"/><use transform="matrix(0.05,0,0,0.05,10.950000000000001,0)" xlink:href="#aR"/><use transform="matrix(0.05,0,0,0.05,20.950000000000003,0)" xlink:href="#aS"/><use transform="matrix(0.05,0,0,0.05,30.950000000000003,0)" xlink:href="#R"/><use transform="matrix(0.05,0,0,0.05,37.95,0)" xlink:href="#aN"/><use transform="matrix(0.05,0,0,0.05,42.95,0)" xlink:href="#O"/></g><path fill="#333" d="M156-122c2-23-7-37-28-37-47 0-58 44-58 89 0 24 12 40 36 40 43 0 47-49 50-92zM-8 75l50-265h48c0 10-3 24-3 30 22-50 127-45 121 29-6 73-21 135-92 135-29 0-46-14-55-35L41 75H-8" id="be"/><path fill="#333" d="M72-63c-8 23 5 39 32 30L98-1C54 14 12-6 23-64l18-93H15l7-33h28l24-45h31l-8 45h35l-6 33H90" id="bf"/><g id="F"><use transform="matrix(0.05,0,0,0.05,0,0)" xlink:href="#be"/><use transform="matrix(0.05,0,0,0.05,10.950000000000001,0)" xlink:href="#aY"/><use transform="matrix(0.05,0,0,0.05,21.900000000000002,0)" xlink:href="#aR"/><use transform="matrix(0.05,0,0,0.05,31.900000000000002,0)" xlink:href="#bf"/><use transform="matrix(0.05,0,0,0.05,37.85,0)" xlink:href="#aN"/><use transform="matrix(0.05,0,0,0.05,42.85,0)" xlink:href="#O"/></g><g id="G"><use transform="matrix(0.05,0,0,0.05,0,0)" xlink:href="#aP"/><use transform="matrix(0.05,0,0,0.05,12,0)" xlink:href="#aD"/><use transform="matrix(0.05,0,0,0.05,26,0)" xlink:href="#K"/><use transform="matrix(0.05,0,0,0.05,38,0)" xlink:href="#aG"/></g><g id="H"><use transform="matrix(0.05,0,0,0.05,0,0)" xlink:href="#am"/><use transform="matrix(0.05,0,0,0.05,3.95,0)" xlink:href="#ae"/><use transform="matrix(0.05,0,0,0.05,18.900000000000002,0)" xlink:href="#ad"/><use transform="matrix(0.05,0,0,0.05,28.900000000000002,0)" xlink:href="#aH"/><use transform="matrix(0.05,0,0,0.05,38.900000000000006,0)" xlink:href="#aa"/></g><g id="I"><use transform="matrix(0.05,0,0,0.05,0,0)" xlink:href="#af"/><use transform="matrix(0.05,0,0,0.05,9,0)" xlink:href="#ad"/><use transform="matrix(0.05,0,0,0.05,19,0)" xlink:href="#ab"/><use transform="matrix(0.05,0,0,0.05,24.95,0)" xlink:href="#ag"/><use transform="matrix(0.05,0,0,0.05,33.95,0)" xlink:href="#ah"/><use transform="matrix(0.05,0,0,0.05,43.95,0)" xlink:href="#ad"/><use transform="matrix(0.05,0,0,0.05,53.95,0)" xlink:href="#ab"/><use transform="matrix(0.05,0,0,0.05,59.900000000000006,0)" xlink:href="#ai"/><use transform="matrix(0.05,0,0,0.05,65.85000000000001,0)" xlink:href="#at"/><use transform="matrix(0.05,0,0,0.05,75.85000000000001,0)" xlink:href="#ak"/><use transform="matrix(0.05,0,0,0.05,85.85000000000001,0)" xlink:href="#ak"/><use transform="matrix(0.05,0,0,0.05,95.85000000000001,0)" xlink:href="#al"/></g></defs></g></svg>